<svg width="200" height="44" viewBox="0 0 200 44" fill="none" xmlns="http://www.w3.org/2000/svg">
<g clip-path="url(#clip0_5239_7759)">
<path fill-rule="evenodd" clip-rule="evenodd" d="M25.0873 28.826C25.0873 25.2585 21.0055 24.8422 18.3622 24.5093L11.4148 23.5936C5.95283 22.8563 0.303711 21.1558 0.303711 14.5201C0.303711 6.92116 8.6195 4.75684 14.7599 4.75684V9.51359C11.6955 9.40657 5.96453 10.1676 5.96453 14.2703C5.96453 17.4931 9.81248 18.0282 12.2218 18.3612L19.2394 19.372C24.947 20.1687 30.7248 21.239 30.7248 28.172C30.7248 36.1395 21.9762 38.6012 15.5903 38.6012V33.8444C18.7949 33.9514 25.0873 33.1785 25.0873 28.826Z" fill="#00FFFF"/>
<path fill-rule="evenodd" clip-rule="evenodd" d="M15.614 43.346C9.55556 43.346 1.87134 41.0746 0 34.4865L4.97076 32.3103C6.42105 36.0087 9.96491 38.6487 15.614 38.6725V43.346Z" fill="#00FFFF"/>
<path fill-rule="evenodd" clip-rule="evenodd" d="M14.7598 0C20.327 0 27.6253 2.0573 29.52 8.07459L24.5609 10.2627C22.713 6.71892 19.7188 4.75676 14.7598 4.75676V0Z" fill="#00FFFF"/>
<path fill-rule="evenodd" clip-rule="evenodd" d="M40.2803 36.4843H43.2744C44.7949 36.4843 46.0581 35.866 46.0581 34.2368C46.0789 33.8523 45.976 33.4714 45.765 33.1517C45.554 32.832 45.2463 32.5909 44.8885 32.4649C45.1415 32.2948 45.3509 32.0659 45.4994 31.797C45.6479 31.5281 45.7312 31.2271 45.7423 30.9189C45.7423 29.3611 44.4206 28.9925 43.0756 28.9925H40.2803V32.1081H41.5785V29.9914H43.1926C43.9294 29.9914 44.3621 30.3362 44.3621 31.0022C44.3621 31.6681 43.906 32.0843 43.1926 32.0843H41.5785V33.0952H43.2744C44.2686 33.0952 44.7247 33.4638 44.7247 34.2843C44.7247 35.1049 44.2686 35.4735 43.3446 35.4735H41.5785V33.0952H40.2803V36.4843ZM59.2627 35.533C59.7991 35.5554 60.3329 35.4452 60.8183 35.2119C60.9871 35.1425 61.1324 35.0246 61.2363 34.8725C61.3402 34.7204 61.3981 34.5408 61.4031 34.3557C61.4129 34.2236 61.3864 34.0914 61.3265 33.9738C61.2666 33.8561 61.1757 33.7578 61.0639 33.6898C60.6994 33.5014 60.302 33.3883 59.8943 33.3568L58.292 33.1427C57.5938 33.0944 56.9203 32.8607 56.3388 32.4649C56.134 32.2952 55.972 32.0783 55.8662 31.8322C55.7605 31.586 55.7139 31.3178 55.7306 31.0498C55.7274 30.6171 55.8721 30.1968 56.1399 29.8606C56.4572 29.5014 56.86 29.2312 57.3095 29.0757C57.8751 28.8853 58.4682 28.7929 59.0639 28.8022V27.7081C59.6694 27.6952 60.2721 27.796 60.8417 28.0054C61.2099 28.1279 61.5472 28.3308 61.8301 28.5999C62.113 28.8691 62.3345 29.1979 62.4791 29.5633L61.3095 30.0746C61.0984 29.6566 60.7702 29.3115 60.3664 29.0829C59.9626 28.8543 59.5012 28.7525 59.0405 28.7903V29.8725C58.5355 29.8509 58.0332 29.9571 57.5785 30.1816C57.4203 30.2507 57.2853 30.3651 57.1897 30.5107C57.0942 30.6564 57.0424 30.8271 57.0405 31.0022C57.0344 31.1245 57.0605 31.2462 57.116 31.3549C57.1715 31.4636 57.2544 31.5553 57.3563 31.6206C57.7213 31.8075 58.1185 31.9205 58.5259 31.9535L60.1516 32.1795C60.6905 32.2449 61.2202 32.3725 61.7306 32.56C62.066 32.6754 62.3568 32.8961 62.561 33.1903C62.7364 33.5007 62.8216 33.8553 62.8066 34.213C62.8155 34.6759 62.6621 35.127 62.3738 35.4854C62.046 35.8707 61.6216 36.1583 61.1458 36.3179C60.5564 36.529 59.9342 36.6297 59.3095 36.6152V37.7092C58.6274 37.739 57.9466 37.6257 57.3095 37.3762C56.8115 37.1922 56.3684 36.881 56.023 36.4725C55.8209 36.2348 55.6731 35.9545 55.5902 35.6519L56.7598 35.1525C56.9663 35.6276 57.3147 36.0246 57.7555 36.2872C58.1964 36.5497 58.7073 36.6645 59.2159 36.6152V35.533H59.2627ZM65.0405 32.1081H69.2627V28.933H70.5727V36.4725H69.2627V33.2973H65.0405V36.4487H63.7306V33.2973H65.0405V32.1081H63.7306V28.933H65.0405V32.1081ZM72.0581 35.3189V30.0389H73.4031V28.933H78.2452V30.0389H73.3914V32.1081H78.2335V33.2973H73.3914V35.4022H78.2335V36.5081H72.0464V35.4022L72.0581 35.3189ZM85.0171 33.2973L86.5493 36.4725H85.0054L83.5434 33.4638H81.2043V36.4725H79.9645V33.4638H81.2627V32.3341H79.9645V28.933H84.0113C84.4826 28.9239 84.95 29.0214 85.3797 29.2184C85.7557 29.3897 86.0761 29.666 86.3037 30.0152C86.5199 30.3729 86.6343 30.7845 86.6343 31.2043C86.6343 31.6242 86.5199 32.0358 86.3037 32.3935C86.0721 32.7362 85.7525 33.0077 85.3797 33.1784C85.2638 33.2382 85.1424 33.286 85.0171 33.3211V33.2973ZM81.2627 32.3222H83.906C84.2701 32.3417 84.6297 32.2324 84.9235 32.013C85.0436 31.9126 85.1402 31.7864 85.2066 31.6435C85.273 31.5006 85.3074 31.3445 85.3074 31.1865C85.3074 31.0285 85.273 30.8724 85.2066 30.7295C85.1402 30.5866 85.0436 30.4604 84.9235 30.36C84.6207 30.1514 84.2599 30.0472 83.8943 30.0627H81.2627V32.3222ZM89.1575 28.9211H87.9879V36.4606H89.2393V29.1114L92.2101 36.4725H93.5668L96.5844 29.0043V36.4725H97.8358V28.933H95.2627L92.9235 34.9622L90.5844 28.933H89.1575V28.9211ZM101.59 28.9211L100.035 33.1784H104.456L102.924 28.933H104.245L106.994 36.4725H105.614L104.912 34.4865H99.5668L98.8417 36.4962H100.233L100.947 34.4865L101.403 33.2141L102.924 28.933L101.59 28.9211ZM110.947 28.9211C111.714 28.9032 112.474 29.066 113.169 29.3968C113.783 29.6884 114.301 30.1548 114.66 30.7393C115.019 31.3239 115.204 32.0017 115.193 32.6908C115.199 33.3959 114.999 34.0869 114.619 34.6768C114.256 35.2531 113.742 35.7145 113.134 36.0087C112.437 36.3298 111.677 36.4883 110.912 36.4725H108.865V35.2833H107.602V28.933L110.947 28.9211ZM108.9 35.2952H110.994C111.51 35.3067 112.023 35.1969 112.491 34.9741C112.895 34.7673 113.236 34.4503 113.473 34.0584C113.704 33.6407 113.825 33.1698 113.825 32.6908C113.825 32.2119 113.704 31.741 113.473 31.3233C113.236 30.9314 112.895 30.6144 112.491 30.4076C112.023 30.1848 111.51 30.0749 110.994 30.0865H108.865V35.2952H108.9ZM116.245 28.9211V27.7319H114.9V28.9211H116.21V36.4606H117.508V28.933L116.245 28.9211ZM127.298 27.7319H128.596V28.9211H129.824V36.4606H128.514V28.933H127.216V27.7438L127.298 27.7319ZM123.789 36.3654L120.28 28.8973V36.3654H119.017V28.933H121.812L125.321 36.4011V28.933H126.584V36.4011H123.777L123.789 36.3654ZM146.198 28.6714C145.409 28.6714 144.638 28.9095 143.981 29.3556C143.325 29.8017 142.814 30.4358 142.513 31.1774C142.211 31.9191 142.133 32.7351 142.288 33.522C142.442 34.309 142.823 35.0315 143.382 35.5981C143.941 36.1648 144.653 36.55 145.428 36.7052C146.202 36.8603 147.004 36.7783 147.733 36.4695C148.461 36.1608 149.083 35.6392 149.52 34.9708C149.957 34.3023 150.189 33.5172 150.187 32.7146C150.184 31.6412 149.762 30.6128 149.014 29.8549C148.267 29.097 147.254 28.6714 146.198 28.6714ZM146.198 29.8606C146.771 29.8127 147.344 29.9416 147.844 30.2305C148.343 30.5194 148.745 30.9548 148.997 31.4797C149.249 32.0047 149.339 32.5947 149.256 33.1727C149.173 33.7506 148.92 34.2896 148.531 34.7191C148.141 35.1486 147.633 35.4486 147.074 35.5798C146.514 35.7111 145.928 35.6675 145.393 35.4548C144.858 35.2421 144.399 34.8701 144.075 34.3876C143.751 33.9051 143.578 33.3344 143.579 32.7503C143.561 32.3832 143.615 32.0163 143.738 31.6705C143.86 31.3247 144.048 31.0068 144.292 30.735C144.535 30.4633 144.829 30.2431 145.156 30.0869C145.483 29.9307 145.837 29.8417 146.198 29.8249V29.8606ZM135.672 32.2389H139.894V28.933H141.204V36.4725H139.894V33.2973H135.672V36.4487H134.502V33.2973H135.812V32.1081H134.502V28.933H135.812V32.1081L135.672 32.2389ZM166.257 35.4498V30.0389H167.59V28.933H172.444V30.0389H167.59V32.1081H172.444V33.2973H167.59V35.4022H172.444V36.5081H166.257V35.4022V35.4498ZM162.14 33.2973C162.865 33.44 163.695 33.6898 163.695 34.4865C163.695 35.2833 162.982 35.6757 162.081 35.6757C161.62 35.7136 161.163 35.571 160.802 35.2769C160.441 34.9829 160.204 34.5598 160.14 34.0941H158.83C158.861 34.4858 158.968 34.8674 159.146 35.2161C159.325 35.5648 159.57 35.8736 159.868 36.1243C160.165 36.3749 160.51 36.5622 160.88 36.6751C161.25 36.788 161.639 36.8242 162.023 36.7816C163.508 36.7816 165.017 35.9968 165.017 34.4033C165.017 32.8098 163.742 32.3816 162.432 32.1081L161.508 31.9298C160.853 31.7989 160.339 31.5016 160.339 30.9071C160.339 30.3125 161.216 29.8962 161.801 29.8962C162.184 29.8456 162.572 29.9383 162.892 30.1571C163.213 30.3759 163.444 30.7059 163.543 31.0854H164.912C164.802 30.3901 164.434 29.7643 163.883 29.3372C163.332 28.9101 162.641 28.7143 161.953 28.7903C160.561 28.7903 159.087 29.5276 159.087 30.9546C159.087 32.3816 160.07 32.8692 161.274 33.1308L162.187 33.3092L162.14 33.2973ZM151.029 28.9092V33.2973C151.029 37.8876 157.964 37.8519 157.964 33.2973V28.933H156.725V33.3568C156.747 33.6601 156.707 33.9647 156.608 34.2517C156.509 34.5386 156.352 34.8017 156.149 35.0245C155.945 35.2473 155.699 35.425 155.424 35.5465C155.15 35.668 154.854 35.7307 154.555 35.7307C154.256 35.7307 153.96 35.668 153.686 35.5465C153.412 35.425 153.165 35.2473 152.961 35.0245C152.758 34.8017 152.602 34.5386 152.503 34.2517C152.403 33.9647 152.364 33.6601 152.386 33.3568V28.933L151.029 28.9092ZM45.8475 28.9092H47.3329L49.1809 32.2746L51.0756 28.9092H52.5376L49.8007 33.5352V36.4606H48.5025V33.5471L45.8475 28.9092Z" fill="#FEFEFE"/>
<path d="M41.0066 5.86421H49.6086V7.66621H43.1656V10.9642H49.2346V12.7492H43.1656V18.1892H41.0066V5.86421ZM53.027 16.3702H59.232V18.1892H50.868V5.86421H53.027V16.3702ZM63.9953 5.86421H66.2733L70.8973 18.1892H68.5343L67.5653 15.4522H62.5673L61.6153 18.1892H59.4053L63.9953 5.86421ZM63.1963 13.6502H66.9193L65.0493 8.36321L63.1963 13.6502ZM81.9769 14.0922C81.4669 16.8462 79.4949 18.4102 76.6559 18.4102C73.0519 18.4102 70.9609 15.8432 70.9609 11.9842C70.9609 8.10821 73.1879 5.64321 76.7579 5.64321C79.4949 5.64321 81.4499 7.20721 81.9429 9.96121H79.8689C79.4949 8.29521 78.2879 7.41121 76.6899 7.41121C74.7349 7.41121 73.1879 9.00921 73.1879 11.9842C73.1879 14.9762 74.7009 16.6422 76.6729 16.6422C78.3389 16.6422 79.5289 15.7752 79.9029 14.0922H81.9769ZM89.3107 18.4102C85.6897 18.4102 83.4287 15.8092 83.4287 12.0182C83.4287 8.22721 85.6897 5.64321 89.3107 5.64321C92.9317 5.64321 95.1927 8.22721 95.1927 12.0182C95.1927 15.8092 92.9317 18.4102 89.3107 18.4102ZM89.3107 16.6422C91.3507 16.6422 92.9657 15.0102 92.9657 12.0182C92.9657 9.02621 91.3507 7.41121 89.3107 7.41121C87.2707 7.41121 85.6557 9.02621 85.6557 12.0182C85.6557 15.0102 87.2707 16.6422 89.3107 16.6422ZM104.496 18.1892L99.2773 8.34621V18.1892H97.1863V5.86421H100.076L105.295 15.7072V5.86421H107.386V18.1892H104.496ZM109.445 14.5172V12.6982H114.987V14.5172H109.445ZM122.846 18.4102C119.225 18.4102 116.964 15.8092 116.964 12.0182C116.964 8.22721 119.225 5.64321 122.846 5.64321C126.467 5.64321 128.728 8.22721 128.728 12.0182C128.728 15.8092 126.467 18.4102 122.846 18.4102ZM122.846 16.6422C124.886 16.6422 126.501 15.0102 126.501 12.0182C126.501 9.02621 124.886 7.41121 122.846 7.41121C120.806 7.41121 119.191 9.02621 119.191 12.0182C119.191 15.0102 120.806 16.6422 122.846 16.6422ZM134.784 5.86421C137.487 5.86421 140.02 6.30621 140.02 9.74021C140.02 12.8512 137.725 13.5312 134.818 13.5312H132.88V18.1892H130.721V5.86421H134.784ZM132.88 7.59821V11.7632H134.886C136.518 11.7632 137.776 11.5252 137.776 9.75721C137.776 7.75121 136.297 7.59821 134.784 7.59821H132.88ZM144.166 7.66621H140.29V5.86421H150.201V7.66621H146.325V18.1892H144.166V7.66621ZM149.124 18.1892V15.8772H151.436V18.1892H149.124ZM158.461 12.9872C158.257 13.0042 158.036 13.0042 157.815 13.0042H155.724V18.1892H153.565V5.86421H157.492C161.13 5.86421 162.983 6.68021 162.983 9.41721C162.983 10.9982 162.201 12.0692 160.671 12.5962L163.493 18.1892H161.062L158.461 12.9872ZM155.724 7.59821V11.2872H157.866C159.719 11.2872 160.773 10.9132 160.773 9.43421C160.773 7.81921 159.498 7.59821 157.798 7.59821H155.724ZM166.826 5.86421V13.1402C166.826 15.4012 167.421 16.6422 169.716 16.6422C171.977 16.6422 172.589 15.3332 172.589 13.0722V5.86421H174.748V12.9872C174.748 16.8802 173.303 18.4102 169.716 18.4102C166.18 18.4102 164.667 17.0332 164.667 13.0552V5.86421H166.826Z" fill="#FEFEFE"/>
</g>
<defs>
<clipPath id="clip0_5239_7759">
<rect width="200" height="44" fill="white"/>
</clipPath>
</defs>
</svg>
