<svg width="35" height="35" viewBox="0 0 35 35" fill="none" xmlns="http://www.w3.org/2000/svg">
<circle cx="17.5" cy="17.5" r="16.5" fill="#00FFFF"/>
<path d="M23.7167 11.1876C23.4609 10.9706 23.059 10.9396 22.6435 11.1064H22.6428C22.2058 11.2818 10.2721 16.4005 9.7863 16.6096C9.69794 16.6403 8.92624 16.9282 9.00573 17.5696C9.0767 18.1479 9.69692 18.3874 9.77265 18.415L12.8066 19.4538C13.0078 20.1238 13.7499 22.5959 13.914 23.124C14.0163 23.4532 14.1831 23.8858 14.4755 23.9748C14.732 24.0738 14.9872 23.9834 15.1524 23.8537L17.0072 22.1333L20.0016 24.4685L20.0729 24.5111C20.2762 24.6012 20.471 24.6462 20.6569 24.6462C20.8005 24.6462 20.9384 24.6193 21.0701 24.5654C21.5187 24.3811 21.6981 23.9537 21.7169 23.9052L23.9535 12.2796C24.09 11.6587 23.9003 11.3428 23.7167 11.1876ZM15.4823 19.8693L14.4588 22.5986L13.4353 19.187L21.2819 13.3874L15.4823 19.8693Z" fill="black"/>
</svg>
