<svg width="35" height="35" viewBox="0 0 35 35" fill="none" xmlns="http://www.w3.org/2000/svg">
<circle cx="17.5" cy="17.5" r="16.5" fill="#FEFEFE"/>
<path d="M25.1315 13.7681C24.8418 12.7346 24.2687 11.9165 23.4279 11.3377C22.3668 10.6067 21.1463 10.3475 20.0923 10.1902C18.6338 9.97276 17.3127 9.9423 16.0547 10.096C14.8746 10.2405 13.9863 10.4714 13.1753 10.844C11.5865 11.5736 10.633 12.7551 10.3419 14.3546C10.2002 15.1309 10.1053 15.8329 10.0501 16.5023C9.92255 18.05 10.038 19.42 10.4035 20.6893C10.7591 21.9268 11.381 22.8115 12.3047 23.3924C12.5406 23.5404 12.8409 23.6474 13.1328 23.7508C13.2787 23.8025 13.419 23.8535 13.5415 23.9074V26.4078C13.5415 26.7351 13.8064 27 14.1337 27C14.2881 27 14.4361 26.9398 14.5466 26.8321L16.8537 24.5881C16.9543 24.4733 16.9543 24.4733 17.0577 24.4712C17.8461 24.4556 18.6515 24.4252 19.4519 24.382C20.4217 24.3288 21.5451 24.2353 22.6034 23.794C23.5717 23.3896 24.2786 22.7478 24.7029 21.8872C25.1456 20.989 25.4091 20.0157 25.5076 18.9128C25.6804 16.9734 25.5572 15.2903 25.1315 13.7681ZM21.1144 21.1491C20.8828 21.528 20.5357 21.7901 20.1277 21.9601C19.8295 22.0848 19.5249 22.0586 19.2309 21.9339C16.7631 20.8898 14.8286 19.2436 13.5493 16.8784C13.2858 16.3911 13.1023 15.8605 12.8919 15.3456C12.8487 15.2393 12.8523 15.1154 12.8332 14.9999C12.8516 14.1676 13.4898 13.6994 14.1344 13.5577C14.3809 13.5032 14.5991 13.5903 14.7818 13.7652C15.2876 14.2483 15.6878 14.8079 15.9888 15.4355C16.1206 15.7111 16.0611 15.9547 15.8365 16.1595C15.7905 16.202 15.7416 16.2416 15.6913 16.2792C15.1792 16.6645 15.1041 16.9556 15.3768 17.5358C15.8415 18.5225 16.6129 19.1848 17.6109 19.5957C17.8737 19.704 18.1217 19.6502 18.3228 19.437C18.3498 19.4086 18.3802 19.381 18.4 19.3484C18.7939 18.6918 19.3641 18.757 19.8911 19.1317C20.2375 19.3775 20.5733 19.6367 20.9161 19.8875C21.436 20.2707 21.4318 20.6305 21.1144 21.1491ZM18.1535 14.3511C18.0211 14.3511 17.8879 14.3617 17.7576 14.3836C17.5366 14.4212 17.3283 14.2717 17.2915 14.0507C17.2547 13.8304 17.4034 13.6215 17.6244 13.5846C17.798 13.5563 17.9765 13.5414 18.1535 13.5414C19.9067 13.5414 21.3333 14.968 21.3333 16.7212C21.3333 16.899 21.3184 17.0775 21.2894 17.251C21.2561 17.4487 21.0847 17.5889 20.8906 17.5889C20.8686 17.5889 20.846 17.5875 20.8233 17.5832C20.603 17.5457 20.4543 17.3374 20.4911 17.1171C20.513 16.9882 20.5237 16.8551 20.5237 16.7219C20.5237 15.4143 19.4604 14.3511 18.1535 14.3511ZM19.9166 16.9819C19.9166 17.205 19.7353 17.3863 19.5122 17.3863C19.289 17.3863 19.1077 17.205 19.1077 16.9819C19.1077 16.3125 18.563 15.7677 17.8936 15.7677C17.6705 15.7677 17.4891 15.5864 17.4891 15.3633C17.4891 15.1401 17.6705 14.9588 17.8936 14.9588C19.0085 14.9581 19.9166 15.8662 19.9166 16.9819ZM22.6409 17.4756C22.5984 17.664 22.432 17.7908 22.2464 17.7908C22.2166 17.7908 22.1862 17.7872 22.1564 17.7809C21.9382 17.7313 21.8015 17.5145 21.8511 17.2971C21.9099 17.0385 21.9397 16.7715 21.9397 16.5037C21.9397 14.5359 20.3388 12.9344 18.3703 12.9344C18.1018 12.9344 17.8355 12.9641 17.5769 13.0229C17.3602 13.0732 17.142 12.9358 17.0931 12.7176C17.0436 12.4994 17.1803 12.2827 17.3984 12.2338C17.7158 12.1608 18.043 12.1247 18.3717 12.1247C20.7858 12.1247 22.75 14.089 22.75 16.503C22.75 16.8317 22.7132 17.1589 22.6409 17.4756Z" fill="black"/>
</svg>
