<svg width="33" height="33" viewBox="0 0 33 33" fill="none" xmlns="http://www.w3.org/2000/svg">
<g clip-path="url(#clip0_5239_7703)">
<circle cx="16.5" cy="16.5" r="14.5" fill="black"/>
<path d="M16.5 0C7.40204 0 0 7.40204 0 16.5C0 25.598 7.40204 33 16.5 33C25.5987 33 33 25.598 33 16.5C33 7.40204 25.5987 0 16.5 0ZM23.6545 19.7534C25.2593 21.1781 25.5929 21.6867 25.6475 21.7735C26.3125 22.8281 24.91 22.9565 24.91 22.9565H21.9543C21.9543 22.9565 21.2348 22.9644 20.62 22.5569C19.6178 21.9005 18.5682 20.6279 17.8308 20.8488C17.2117 21.0339 17.2174 21.8704 17.2174 22.5856C17.2174 22.8417 16.9972 22.9565 16.5 22.9565C16.0028 22.9565 15.7962 22.9565 15.576 22.9565C13.9568 22.9565 12.2 22.4113 10.4474 20.5798C7.96807 17.9907 5.79365 12.7753 5.79365 12.7753C5.79365 12.7753 5.66524 12.5127 5.80513 12.3528C5.96367 12.1734 6.39483 12.1964 6.39483 12.1964L9.26081 12.1957C9.26081 12.1957 9.53054 12.2466 9.72424 12.3829C9.88422 12.4948 9.97317 12.7086 9.97317 12.7086C9.97317 12.7086 10.4545 14.2983 11.0679 15.312C12.266 17.2906 12.8234 17.3408 13.2301 17.1277C13.8241 16.8192 13.6304 14.7158 13.6304 14.7158C13.6304 14.7158 13.657 13.8127 13.3471 13.4102C13.1082 13.0988 12.6512 12.9331 12.4518 12.9073C12.2903 12.8865 12.5601 12.6038 12.9037 12.4424C13.3628 12.238 13.9877 12.1856 15.0652 12.1957C15.9038 12.2035 16.1456 12.2538 16.4727 12.3291C17.462 12.5572 17.2174 13.1591 17.2174 15.2725C17.2174 15.9498 17.1241 16.9017 17.6349 17.2174C17.8552 17.3537 18.6098 17.5201 19.9528 15.3393C20.5906 14.3048 21.0978 12.5888 21.0978 12.5888C21.0978 12.5888 21.2025 12.4001 21.3653 12.3068C21.5318 12.2114 21.5268 12.2136 21.7549 12.2136C21.983 12.2136 24.2708 12.1957 24.773 12.1957C25.2744 12.1957 25.745 12.1899 25.8261 12.484C25.9423 12.9066 25.4559 14.3543 24.2234 15.9254C22.1982 18.5037 21.9737 18.2626 23.6545 19.7534Z" fill="#FEFEFE"/>
</g>
<defs>
<clipPath id="clip0_5239_7703">
<rect width="33" height="33" fill="white"/>
</clipPath>
</defs>
</svg>
