<svg width="33" height="33" viewBox="0 0 33 33" fill="none" xmlns="http://www.w3.org/2000/svg">
<g clip-path="url(#clip0_2249_3189)">
<circle cx="16.5" cy="16.5" r="14.5" fill="black"/>
<path d="M16.5 9.15527e-05C7.40204 9.15527e-05 0 7.40213 0 16.5001C0 25.598 7.40204 33.0001 16.5 33.0001C25.5987 33.0001 33 25.598 33 16.5001C33 7.40213 25.5987 9.15527e-05 16.5 9.15527e-05ZM23.6545 19.7535C25.2593 21.1782 25.5929 21.6868 25.6475 21.7736C26.3125 22.8282 24.91 22.9566 24.91 22.9566H21.9543C21.9543 22.9566 21.2348 22.9645 20.62 22.557C19.6178 21.9006 18.5682 20.628 17.8308 20.8489C17.2117 21.034 17.2174 21.8705 17.2174 22.5857C17.2174 22.8418 16.9972 22.9566 16.5 22.9566C16.0028 22.9566 15.7962 22.9566 15.576 22.9566C13.9568 22.9566 12.2 22.4114 10.4474 20.5799C7.96807 17.9908 5.79365 12.7754 5.79365 12.7754C5.79365 12.7754 5.66524 12.5128 5.80513 12.3529C5.96367 12.1735 6.39483 12.1965 6.39483 12.1965L9.26081 12.1957C9.26081 12.1957 9.53054 12.2467 9.72424 12.383C9.88422 12.4949 9.97317 12.7087 9.97317 12.7087C9.97317 12.7087 10.4545 14.2984 11.0679 15.3121C12.266 17.2907 12.8234 17.3409 13.2301 17.1278C13.8241 16.8193 13.6304 14.7159 13.6304 14.7159C13.6304 14.7159 13.657 13.8127 13.3471 13.4103C13.1082 13.0989 12.6512 12.9332 12.4518 12.9074C12.2903 12.8866 12.5601 12.6039 12.9037 12.4425C13.3628 12.2381 13.9877 12.1857 15.0652 12.1957C15.9038 12.2036 16.1456 12.2539 16.4727 12.3292C17.462 12.5573 17.2174 13.1592 17.2174 15.2726C17.2174 15.9499 17.1241 16.9018 17.6349 17.2175C17.8552 17.3538 18.6098 17.5202 19.9528 15.3394C20.5906 14.3049 21.0978 12.5889 21.0978 12.5889C21.0978 12.5889 21.2025 12.4002 21.3653 12.3069C21.5318 12.2115 21.5268 12.2137 21.7549 12.2137C21.983 12.2137 24.2708 12.1957 24.773 12.1957C25.2744 12.1957 25.745 12.19 25.8261 12.4841C25.9423 12.9067 25.4559 14.3544 24.2234 15.9255C22.1982 18.5038 21.9737 18.2627 23.6545 19.7535Z" fill="#00FFFF"/>
</g>
<defs>
<clipPath id="clip0_2249_3189">
<rect width="33" height="33.0001" fill="white"/>
</clipPath>
</defs>
</svg>
