<svg width="35" height="35" viewBox="0 0 35 35" fill="none" xmlns="http://www.w3.org/2000/svg">
<circle cx="17.5" cy="17.5" r="16.5" fill="#FEFEFE"/>
<path d="M23.6597 12.3449C21.9922 10.6765 19.7175 9.83475 17.3291 10.027C14.1182 10.2849 11.3037 12.5179 10.3618 15.5983C9.68898 17.7993 9.97171 20.0972 11.0674 21.9954L10.0294 25.4418C9.93006 25.7726 10.232 26.0842 10.566 25.9953L14.1734 25.0285C15.342 25.6661 16.6571 26.0017 17.9963 26.0025H17.9995C21.3594 26.0025 24.4639 23.9473 25.5379 20.7635C26.584 17.6591 25.8102 14.4978 23.6597 12.3449ZM21.9145 20.8556C21.7479 21.3226 20.9317 21.7727 20.5649 21.8056C20.1981 21.8392 19.8545 21.9714 18.1661 21.3058C16.1341 20.5048 14.851 18.4216 14.7517 18.2886C14.6516 18.1549 13.9355 17.205 13.9355 16.2214C13.9355 15.2379 14.4522 14.7541 14.6356 14.5547C14.819 14.3544 15.0352 14.3048 15.169 14.3048C15.3019 14.3048 15.4357 14.3048 15.5518 14.3096C15.6944 14.3152 15.8522 14.3224 16.002 14.6548C16.1798 15.0504 16.5682 16.0388 16.6179 16.1389C16.6675 16.239 16.7012 16.356 16.6347 16.4889C16.5682 16.6219 16.5346 16.7052 16.4353 16.8221C16.3352 16.9391 16.2254 17.0824 16.1357 17.1721C16.0356 17.2715 15.9315 17.3804 16.0476 17.5798C16.1646 17.78 16.565 18.4344 17.1593 18.9638C17.9234 19.6446 18.5666 19.8553 18.7668 19.9562C18.967 20.0563 19.0832 20.0395 19.2001 19.9057C19.317 19.7728 19.6999 19.3227 19.8329 19.1224C19.9658 18.9222 20.0996 18.9558 20.283 19.0223C20.4664 19.0888 21.4491 19.5725 21.6486 19.6727C21.8488 19.7728 21.9818 19.8224 22.0314 19.9057C22.0811 19.9882 22.0811 20.3887 21.9145 20.8556Z" fill="black"/>
</svg>
