<svg width="35" height="35" viewBox="0 0 35 35" fill="none" xmlns="http://www.w3.org/2000/svg">
<circle cx="17.5" cy="17.5" r="16.5" fill="#00FFFF"/>
<path d="M25.3748 11.9631C25.2924 11.6593 25.0583 11.4269 24.7529 11.3505C23.7873 11.1089 21.3697 10.6249 17.5001 10.6249C13.6304 10.6249 11.2128 11.1089 10.2473 11.3505C9.94193 11.4269 9.70774 11.6593 9.62539 11.9631C9.38177 12.8618 8.90634 14.9431 8.90634 17.4999C8.90634 20.0567 9.38177 22.138 9.62539 23.0367C9.70774 23.3405 9.94193 23.573 10.2473 23.6494C11.2128 23.8909 13.6304 24.3749 17.5001 24.3749C21.3697 24.3749 23.7873 23.8909 24.7529 23.6494C25.0583 23.573 25.2924 23.3405 25.3748 23.0367C25.6184 22.138 26.0938 20.0567 26.0938 17.4999C26.0938 14.9431 25.6184 12.8618 25.3748 11.9631ZM17.2813 19.6108C16.6147 19.9957 15.7813 19.5146 15.7813 18.7448V16.2551C15.7813 15.4853 16.6147 15.0041 17.2813 15.389L19.4375 16.6339C20.1042 17.0188 20.1042 17.981 19.4375 18.3659L17.2813 19.6108Z" fill="black"/>
</svg>
