<svg width="35" height="35" viewBox="0 0 35 35" fill="none" xmlns="http://www.w3.org/2000/svg">
<circle cx="17.5" cy="17.5" r="16.5" fill="#FEFEFE"/>
<path d="M25.3747 11.9632C25.2924 11.6594 25.0582 11.4269 24.7528 11.3506C23.7872 11.109 21.3696 10.625 17.5 10.625C13.6304 10.625 11.2128 11.109 10.2472 11.3506C9.94183 11.4269 9.70765 11.6594 9.62529 11.9632C9.38168 12.8619 8.90625 14.9432 8.90625 17.5C8.90625 20.0568 9.38168 22.1381 9.62529 23.0368C9.70765 23.3406 9.94183 23.5731 10.2472 23.6494C11.2127 23.891 13.6304 24.375 17.5 24.375C21.3696 24.375 23.7872 23.891 24.7528 23.6494C25.0582 23.5731 25.2924 23.3406 25.3747 23.0368C25.6183 22.1381 26.0938 20.0568 26.0938 17.5C26.0938 14.9432 25.6183 12.8619 25.3747 11.9632ZM17.2812 19.6109C16.6146 19.9958 15.7812 19.5146 15.7812 18.7448V16.2552C15.7812 15.4854 16.6146 15.0042 17.2812 15.3891L19.4374 16.634C20.1041 17.0189 20.1041 17.9811 19.4374 18.366L17.2812 19.6109Z" fill="black"/>
</svg>
